<svg width="128" height="62" viewBox="0 0 128 62" fill="none" xmlns="http://www.w3.org/2000/svg">
<path d="M10.23 17.95H6.93V28H3.78C3.1 28 2.65 27.89 2.43 27.67C2.23 27.45 2.13 26.99 2.13 26.29V6.31H5.85C6.17 6.31 6.43 6.42 6.63 6.64C6.83 6.86 6.93 7.15 6.93 7.51V15.1H10.23V17.95ZM11.43 6.31H14.58C15.26 6.31 15.7 6.42 15.9 6.64C16.12 6.86 16.23 7.32 16.23 8.02V28H12.51C12.19 28 11.93 27.89 11.73 27.67C11.53 27.45 11.43 27.16 11.43 26.8V6.31ZM25.3284 28H22.1784C21.4984 28 21.0484 27.89 20.8284 27.67C20.6284 27.45 20.5284 26.99 20.5284 26.29V8.02C20.5284 7.32 20.6284 6.86 20.8284 6.64C21.0484 6.42 21.4984 6.31 22.1784 6.31H25.3284V28ZM34.5984 23.8V26.35C34.5984 27.03 34.4884 27.48 34.2684 27.7C34.0484 27.9 33.5884 28 32.8884 28H26.5284V23.8H34.5984ZM32.7984 14.95V16.75C32.7984 17.47 32.7284 17.93 32.5884 18.13C32.4484 18.31 32.0484 18.4 31.3884 18.4H26.5284V14.95H32.7984ZM34.2984 6.31V8.86C34.2984 9.54 34.1884 9.99 33.9684 10.21C33.7484 10.41 33.2884 10.51 32.5884 10.51H26.5284V6.31H34.2984ZM54.3715 6.31V26.29C54.3715 26.99 54.2615 27.45 54.0415 27.67C53.8415 27.89 53.4015 28 52.7215 28H48.4615C47.2815 28 46.5015 27.82 46.1215 27.46C45.7615 27.1 45.4415 26.17 45.1615 24.67C44.6015 21.71 43.7915 16.93 42.7315 10.33C42.6515 9.83 42.5315 9.51 42.3715 9.37C42.2315 9.23 41.9815 9.15 41.6215 9.13H37.9315V6.31H44.4415C44.9415 6.31 45.3415 6.37 45.6415 6.49C45.9415 6.61 46.1815 6.87 46.3615 7.27C46.5615 7.65 46.6915 8.02 46.7515 8.38C46.8315 8.74 46.9115 9.16 46.9915 9.64C47.0915 10.22 47.2315 11.07 47.4115 12.19C47.7515 14.45 48.2815 17.64 49.0015 21.76C49.2815 23.52 49.4715 24.51 49.5715 24.73C49.6915 24.93 49.8915 25.05 50.1715 25.09V7.51C50.1715 7.15 50.2715 6.86 50.4715 6.64C50.6715 6.42 50.9315 6.31 51.2515 6.31H54.3715ZM37.9315 10.18H41.0515C41.3715 10.18 41.6315 10.29 41.8315 10.51C42.0315 10.73 42.1315 11.02 42.1315 11.38V26.29C42.1315 26.97 42.0415 27.43 41.8615 27.67C41.6815 27.89 41.3215 28 40.7815 28H37.9315V10.18ZM63.473 28H60.323C59.643 28 59.193 27.89 58.973 27.67C58.773 27.45 58.673 26.99 58.673 26.29V7.51C58.673 7.15 58.773 6.86 58.973 6.64C59.173 6.42 59.433 6.31 59.753 6.31H63.473V28ZM64.673 6.31H68.483C69.643 6.31 70.553 6.4 71.213 6.58C71.893 6.76 72.403 7.12 72.743 7.66C73.083 8.18 73.293 8.77 73.373 9.43C73.473 10.07 73.523 10.98 73.523 12.16C73.523 13.34 73.473 14.24 73.373 14.86C73.293 15.48 73.083 16.06 72.743 16.6C72.423 17.14 71.913 17.52 71.213 17.74C70.533 17.96 69.623 18.07 68.483 18.07H64.673V15.22H66.893C67.413 15.22 67.743 15.15 67.883 15.01C68.043 14.87 68.123 14.65 68.123 14.35V10.06C68.123 9.74 68.043 9.51 67.883 9.37C67.743 9.23 67.413 9.16 66.893 9.16H64.673V6.31ZM67.553 19H71.273C71.873 19 72.303 19.17 72.563 19.51C72.823 19.83 72.953 20.36 72.953 21.1V28H68.633C68.313 28 68.053 27.89 67.853 27.67C67.653 27.45 67.553 27.16 67.553 26.8V19ZM81.2372 6.31V14.86C81.2372 15.18 81.2872 15.41 81.3872 15.55C81.4872 15.67 81.7172 15.73 82.0772 15.73H83.1572V18.58H78.4772C77.7172 18.58 77.1872 18.41 76.8872 18.07C76.5872 17.71 76.4372 17.16 76.4372 16.42V7.72C76.4372 6.78 76.9872 6.31 78.0872 6.31H81.2372ZM86.1272 28H82.3772C81.6972 28 81.2472 27.89 81.0272 27.67C80.8272 27.45 80.7272 26.99 80.7272 26.29V21.49C80.7272 20.79 80.8272 20.33 81.0272 20.11C81.2472 19.89 81.6972 19.78 82.3772 19.78H86.1272V28ZM85.8872 6.31H89.0372C89.6372 6.31 90.0572 6.43 90.2972 6.67C90.5572 6.91 90.6872 7.36 90.6872 8.02V16.48C90.6872 17.88 90.1072 18.58 88.9472 18.58H84.3572V15.73H85.0772C85.4372 15.73 85.6572 15.66 85.7372 15.52C85.8372 15.38 85.8872 15.16 85.8872 14.86V6.31Z" fill="url(#paint0_linear_3007_1056)"/>
<path d="M17.82 33.31H22.32C23.78 33.31 24.88 33.56 25.62 34.06C26.38 34.56 26.76 35.43 26.76 36.67V53.29C26.76 53.99 26.65 54.45 26.43 54.67C26.23 54.89 25.79 55 25.11 55H21.96V37.03C21.96 36.71 21.91 36.49 21.81 36.37C21.73 36.23 21.51 36.16 21.15 36.16H17.82V33.31ZM6.93 55H3.78C3.1 55 2.65 54.89 2.43 54.67C2.23 54.45 2.13 53.99 2.13 53.29V34.51C2.13 34.15 2.23 33.86 2.43 33.64C2.63 33.42 2.89 33.31 3.21 33.31H6.93V55ZM8.16 33.31H15.84C16.16 33.31 16.42 33.42 16.62 33.64C16.82 33.86 16.92 34.15 16.92 34.51V52.81H13.8C13.2 52.81 12.77 52.65 12.51 52.33C12.25 51.99 12.12 51.45 12.12 50.71V37.03C12.12 36.71 12.07 36.49 11.97 36.37C11.89 36.23 11.67 36.16 11.31 36.16H8.16V33.31ZM35.7874 55H32.6374C31.9574 55 31.5074 54.89 31.2874 54.67C31.0874 54.45 30.9874 53.99 30.9874 53.29V35.02C30.9874 34.32 31.0874 33.86 31.2874 33.64C31.5074 33.42 31.9574 33.31 32.6374 33.31H35.7874V55ZM45.0195 33.34V41.95C45.0195 42.27 45.0895 42.5 45.2295 42.64C45.3895 42.78 45.7295 42.85 46.2495 42.85H48.4695V45.7H44.6595C43.5195 45.7 42.5995 45.58 41.8995 45.34C41.2195 45.1 40.7095 44.68 40.3695 44.08C40.0495 43.46 39.8395 42.8 39.7395 42.1C39.6595 41.4 39.6195 40.46 39.6195 39.28C39.6195 38.08 39.6595 37.17 39.7395 36.55C39.8395 35.93 40.0495 35.35 40.3695 34.81C40.7095 34.27 41.2195 33.89 41.8995 33.67C42.5995 33.45 43.5195 33.34 44.6595 33.34H45.0195ZM49.6695 42.85H50.0295C50.8895 42.85 51.5495 42.87 52.0095 42.91C52.4895 42.93 52.9495 43.02 53.3895 43.18C53.8295 43.32 54.1295 43.49 54.2895 43.69C54.4695 43.89 54.6295 44.24 54.7695 44.74C54.9295 45.22 55.0195 45.74 55.0395 46.3C55.0595 46.86 55.0695 47.66 55.0695 48.7C55.0695 49.74 55.0595 50.57 55.0395 51.19C55.0195 51.79 54.9295 52.37 54.7695 52.93C54.6295 53.47 54.4695 53.85 54.2895 54.07C54.1295 54.29 53.8295 54.49 53.3895 54.67C52.9495 54.83 52.4895 54.93 52.0095 54.97C51.5495 54.99 50.8895 55 50.0295 55H49.6695V42.85ZM40.0395 48.31H43.8195C44.0995 48.31 44.2695 48.35 44.3295 48.43C44.3895 48.51 44.4195 48.68 44.4195 48.94V51.28C44.4195 51.6 44.4595 51.83 44.5395 51.97C44.6395 52.09 44.8695 52.15 45.2295 52.15H48.4695V55H44.0595C42.5995 55 41.4895 54.75 40.7295 54.25C39.9895 53.75 39.6195 52.88 39.6195 51.64V48.94C39.6195 48.52 39.7595 48.31 40.0395 48.31ZM46.2195 33.31H50.0295C51.4895 33.31 52.5895 33.56 53.3295 34.06C54.0895 34.56 54.4695 35.43 54.4695 36.67V39.37C54.4695 39.79 54.3295 40 54.0495 40H50.2695C49.9895 40 49.8195 39.96 49.7595 39.88C49.6995 39.8 49.6695 39.63 49.6695 39.37V37.03C49.6695 36.71 49.6195 36.49 49.5195 36.37C49.4395 36.23 49.2195 36.16 48.8595 36.16H46.2195V33.31ZM66.8902 44.95H63.5902V55H60.4402C59.7602 55 59.3102 54.89 59.0902 54.67C58.8902 54.45 58.7902 53.99 58.7902 53.29V33.31H62.5102C62.8302 33.31 63.0902 33.42 63.2902 33.64C63.4902 33.86 63.5902 34.15 63.5902 34.51V42.1H66.8902V44.95ZM68.0902 33.31H71.2402C71.9202 33.31 72.3602 33.42 72.5602 33.64C72.7802 33.86 72.8902 34.32 72.8902 35.02V55H69.1702C68.8502 55 68.5902 54.89 68.3902 54.67C68.1902 54.45 68.0902 54.16 68.0902 53.8V33.31ZM85.2586 36.16H82.4686C82.1486 36.16 81.9886 36.24 81.9886 36.4V55H78.8386C78.1586 55 77.7086 54.89 77.4886 54.67C77.2886 54.45 77.1886 53.99 77.1886 53.29V35.02C77.1886 34.32 77.2886 33.86 77.4886 33.64C77.7086 33.42 78.1586 33.31 78.8386 33.31H85.2586V36.16ZM86.4586 33.31H89.6086C90.2886 33.31 90.7286 33.42 90.9286 33.64C91.1486 33.86 91.2586 34.32 91.2586 35.02V53.26C91.2586 53.96 91.1486 54.43 90.9286 54.67C90.7086 54.89 90.2686 55 89.6086 55H86.4586V44.95H83.1886V42.1H86.4586V33.31ZM100.328 55H97.1784C96.4984 55 96.0484 54.89 95.8284 54.67C95.6284 54.45 95.5284 53.99 95.5284 53.29V35.02C95.5284 34.32 95.6284 33.86 95.8284 33.64C96.0484 33.42 96.4984 33.31 97.1784 33.31H100.328V55ZM109.598 50.8V53.35C109.598 54.03 109.488 54.48 109.268 54.7C109.048 54.9 108.588 55 107.888 55H101.528V50.8H109.598ZM107.798 41.95V43.75C107.798 44.47 107.728 44.93 107.588 45.13C107.448 45.31 107.048 45.4 106.388 45.4H101.528V41.95H107.798ZM109.298 33.31V35.86C109.298 36.54 109.188 36.99 108.968 37.21C108.748 37.41 108.288 37.51 107.588 37.51H101.528V33.31H109.298ZM122.321 48.46H126.521C126.741 48.46 126.851 48.6 126.851 48.88V54.16C126.851 54.72 126.571 55 126.011 55H118.751V52.15H121.541C121.861 52.15 122.021 52.12 122.021 52.06C122.041 51.98 122.051 51.89 122.051 51.79V48.79C122.051 48.63 122.071 48.54 122.111 48.52C122.151 48.48 122.221 48.46 122.321 48.46ZM117.701 55H114.551C113.871 55 113.421 54.89 113.201 54.67C113.001 54.45 112.901 53.99 112.901 53.29V35.02C112.901 34.32 113.001 33.86 113.201 33.64C113.421 33.42 113.871 33.31 114.551 33.31H117.701V55Z" fill="white"/>
<defs>
<linearGradient id="paint0_linear_3007_1056" x1="2" y1="11.9459" x2="79.2032" y2="32.4112" gradientUnits="userSpaceOnUse">
<stop offset="0.219959" stop-color="#FF56F6"/>
<stop offset="0.488783" stop-color="#B936EE" stop-opacity="0.750616"/>
<stop offset="0.790745" stop-color="#3BACE2"/>
<stop offset="1" stop-color="#406AFF"/>
</linearGradient>
</defs>
</svg>
